<svg id="visual" viewBox="0 0 900 600" width="900" height="600" xmlns="http://www.w3.org/2000/svg" xmlns:xlink="http://www.w3.org/1999/xlink" version="1.1"><rect x="0" y="0" width="900" height="600" fill="#001220"></rect><defs><linearGradient id="grad1_0" x1="33.3%" y1="0%" x2="100%" y2="100%"><stop offset="20%" stop-color="#001220" stop-opacity="1"></stop><stop offset="80%" stop-color="#001220" stop-opacity="1"></stop></linearGradient></defs><defs><linearGradient id="grad2_0" x1="0%" y1="0%" x2="66.7%" y2="100%"><stop offset="20%" stop-color="#001220" stop-opacity="1"></stop><stop offset="80%" stop-color="#001220" stop-opacity="1"></stop></linearGradient></defs><g transform="translate(900, 0)"><path d="M0 486.7C-56.6 463 -113.2 439.3 -173.7 419.4C-234.2 399.6 -298.7 383.5 -344.2 344.2C-389.7 304.9 -416.4 242.3 -437 181C-457.6 119.8 -472.2 59.9 -486.7 0L0 0Z" fill="#FBAE3C"></path></g><g transform="translate(0, 600)"><path d="M0 -486.7C51.4 -440.8 102.8 -394.8 151.5 -365.9C200.3 -337 246.3 -325.1 300.5 -300.5C354.8 -275.9 417.3 -238.5 449.7 -186.3C482.1 -134.1 484.4 -67 486.7 0L0 0Z" fill="#FBAE3C"></path></g></svg>